<svg width="300" height="88" viewBox="0 0 300 88" fill="none" xmlns="http://www.w3.org/2000/svg">
<g clip-path="url(#clip0_6_3)">
<path d="M37.86 32.7772C39.4599 33.541 41.2912 33.6765 43.3407 33.2297C45.9445 32.6491 48.0949 31.2859 49.7919 29.1395C51.4887 26.9932 52.0884 24.8138 51.5904 22.6012C51.2276 20.9837 50.2396 19.821 48.6437 19.0916C47.0478 18.362 45.1856 18.2322 43.0608 18.7095C40.3347 19.3104 38.1591 20.6241 36.5343 22.6509C34.9094 24.6775 34.3537 26.8213 34.867 29.0822C35.0312 29.8899 35.3886 30.6468 35.9094 31.2898C36.4302 31.9327 37.0991 32.4427 37.86 32.7772Z" fill="#FF8000"/>
<path d="M66.0292 68.1838H59.5992C59.4658 68.1853 59.3351 68.2195 59.2182 68.2832C59.1015 68.3467 59.0022 68.4378 58.9296 68.5485C56.6305 72.0129 53.4514 74.8182 49.711 76.6831C49.5045 76.7921 49.3135 76.8932 49.1011 77.002C44.9427 78.9618 40.3915 79.9695 35.7855 79.9504C27.7366 79.9504 21.0324 77.3936 15.8586 72.3427C10.6849 67.292 8.07194 60.8243 8.07194 53.1174C8.07194 45.5977 10.6752 39.3287 15.8084 34.5014C17.8081 32.6274 20.0966 31.0803 22.5878 29.9185C25.7707 28.4362 29.2054 27.5555 32.7154 27.3216C32.8311 25.4426 33.5895 23.617 34.9829 21.8793C35.7112 20.9752 36.5544 20.1678 37.4915 19.4771C36.8701 19.4504 36.2623 19.4313 35.6409 19.4313C28.6358 19.4313 22.3351 21.0945 16.8467 24.3598C14.5013 25.7615 12.328 27.4276 10.3703 29.3246C3.52149 35.8973 0.0498047 44.0796 0.0498047 53.6694C0.0498047 63.0071 3.52342 71.1283 10.3549 77.8232C17.1863 84.518 25.4998 87.9112 35.0561 87.9112C40.0632 87.932 45.02 86.9234 49.6125 84.9495C50.9797 84.3602 52.3099 83.69 53.5957 82.9426C59.1737 79.7202 63.7304 75.0191 66.751 69.3696C66.8165 69.2469 66.8487 69.1097 66.8448 68.971C66.8411 68.8325 66.8009 68.6972 66.7289 68.5783C66.6566 68.4595 66.5546 68.3611 66.4328 68.2926C66.3109 68.2241 66.1733 68.1879 66.0332 68.1875L66.0292 68.1838ZM29.4077 37.402C25.548 38.7215 21.206 40.9729 16.5398 44.0854C16.4244 44.1691 16.3314 44.2796 16.2692 44.4069C16.2069 44.5345 16.1773 44.6752 16.1828 44.8167C16.1917 44.958 16.2391 45.094 16.32 45.2108C16.4009 45.3274 16.5122 45.4202 16.6421 45.4793L19.6835 46.9326C19.8054 46.9885 19.9392 47.0148 20.0733 47.0091C20.2077 47.0035 20.3386 46.966 20.4553 46.9001C24.5078 44.5055 27.1382 43.081 28.273 42.6532C29.1908 42.271 30.1722 42.0601 31.1677 42.0308C31.3184 42.0196 31.4698 42.0378 31.6135 42.0842C31.5857 42.5678 31.4501 43.0394 31.2159 43.4647C24.6352 56.4496 20.6985 66.5835 20.6985 70.5535C20.6874 71.2044 20.8465 71.847 21.1602 72.4192C21.4739 72.9912 21.9319 73.4733 22.4895 73.8188C23.5082 74.4738 24.7645 74.6361 26.2274 74.8137L26.706 74.8806C32.09 75.5699 37.0322 75.123 40.23 74.6227C43.0726 74.1912 46.0521 73.6681 49.1281 72.6425C50.7161 72.1266 52.2609 71.4881 53.748 70.733C53.8786 70.6649 53.9868 70.5615 54.0608 70.4351C57.075 68.6363 59.3579 66.8529 61.1681 64.8229C65.4542 60.0358 67.6193 54.2613 67.6193 47.6754C67.6193 39.6897 64.2499 32.8192 57.6018 27.2605C56.3611 26.2405 55.0553 25.3009 53.6921 24.4476C53.5093 26.2795 52.7124 28.0872 51.3011 29.8708C50.9324 30.331 50.5427 30.7491 50.1529 31.1559C51.0664 31.7307 51.9416 32.3628 52.7735 33.0483C57.405 36.8883 59.7516 42.0612 59.7516 48.4525C59.7653 50.9949 59.3827 53.5242 58.6169 55.9513C57.8103 58.4337 55.9384 61.8135 53.1093 63.8759C51.6773 64.902 50.1617 65.8089 48.5782 66.5874C48.2501 66.7096 47.9412 66.8299 47.6133 66.9464C40.4035 69.5968 34.6836 69.2378 33.2287 67.8782C32.9352 67.6014 32.9487 67.3913 33.0163 67.2023L33.3174 66.2761C34.0893 63.9428 35.7836 58.7162 39.4195 50.9865C39.6992 50.3984 39.9868 49.7968 40.2878 49.1743C44.3133 40.925 44.8517 39.1073 44.8517 38.4025C44.8517 37.698 44.572 36.7528 43.2268 36.0711C42.3103 35.6108 41.081 35.3797 39.4465 35.3797C36.6791 35.3797 33.3097 36.0635 29.4116 37.3963C29.4105 37.3983 29.4092 37.4002 29.4077 37.402Z" fill="url(#paint0_linear_6_3)"/>
<path d="M36.9181 13.8979C38.1069 15.171 39.2938 16.0678 40.4786 16.5885C41.6943 17.1174 42.6574 17.1613 43.354 16.7317C44.2628 16.1588 44.4482 14.9654 43.902 13.1265C43.3559 11.2876 42.2347 9.46781 40.5596 7.7244C39.3502 6.473 38.1429 5.63917 36.9375 5.2229C35.7699 4.81617 34.8667 4.89827 34.2358 5.4654C33.4367 6.16812 33.3075 7.33867 33.8189 8.97514C34.3303 10.6116 35.3665 12.2347 36.9181 13.8979Z" fill="#FF8000"/>
<path d="M57.1926 3.1564C56.9127 1.51418 56.1621 0.500219 54.9579 0.141225C53.441 -0.318974 51.8219 0.351274 50.1333 2.06794C48.5414 3.71397 47.3699 5.82974 46.6076 8.41336C46.0403 10.3 45.8975 11.9021 46.1637 13.2884C46.436 14.6404 47.0303 15.5264 47.9469 15.9618C49.1435 16.5079 50.5444 16.1527 52.2176 14.8046C53.9737 13.3915 55.3881 11.3674 56.4148 8.67879C57.2118 6.64894 57.4666 4.79669 57.1926 3.1564Z" fill="#FF8000"/>
<path d="M52.1287 16.9336C51.1794 17.6439 50.9207 18.3543 51.3087 19.0971C51.8008 20.0308 53.1959 20.7604 55.5948 21.2815C58.1034 21.8296 60.8766 21.9653 63.9854 21.6463C66.3918 21.4039 68.3179 20.9035 69.6918 20.1377C71.1334 19.3414 71.6216 18.4612 71.1604 17.5141C70.5468 16.292 68.6805 15.4461 65.6875 14.9992C62.7361 14.5877 59.7359 14.6658 56.8105 15.2303C54.6511 15.6351 53.1072 16.1965 52.1287 16.9336Z" fill="#FF8000"/>
<path d="M84.9585 71.1588C83.5289 71.1588 82.4251 72.2012 82.4251 73.7277C82.4251 75.2541 83.5037 76.309 84.9585 76.309C86.3506 76.309 87.4919 75.4403 87.4919 73.7401C87.4919 72.0152 86.3506 71.1588 84.9585 71.1588ZM81.8107 68.1183H82.4125V72.0152C82.9142 71.0223 83.9176 70.5756 84.9837 70.5756C86.7142 70.5756 88.0938 71.7172 88.0938 73.7401C88.0938 75.7754 86.7268 76.9048 84.9962 76.9048C83.9426 76.9048 82.9268 76.3834 82.4125 75.4528V76.8054H81.8107V68.1183Z" fill="#FF8000"/>
<path d="M92.3591 70.6748H92.936L92.9611 71.767C93.3499 70.9354 94.2277 70.6128 95.0178 70.6128C95.482 70.6003 95.9334 70.7245 96.3473 70.9727L96.0713 71.469C95.7452 71.2705 95.3816 71.1836 95.0178 71.1836C93.864 71.1961 92.9735 72.1143 92.9735 73.2312V76.8054H92.3591V70.6748Z" fill="#FF8000"/>
<path d="M100.644 70.6501V76.8054H100.029V70.6501H100.644ZM99.8538 68.6767C99.8538 69.3221 100.845 69.3221 100.845 68.6767C100.845 68.0314 99.8538 68.0314 99.8538 68.6767Z" fill="#FF8000"/>
<path d="M105.165 70.6747H105.766V71.7669C106.243 70.923 107.108 70.5756 107.974 70.5632C109.629 70.5632 110.771 71.5683 110.771 73.2685V76.8054H110.156V73.281C110.156 71.891 109.291 71.1463 107.949 71.1587C106.669 71.1712 105.779 72.1267 105.779 73.3925V76.8054H105.165V70.6747Z" fill="#FF8000"/>
<path d="M119.514 71.1216L120.116 70.4265L120.518 70.7741L119.916 71.469C120.355 71.9407 120.681 72.5612 120.681 73.5539C120.681 74.6212 120.041 75.701 119.013 76.1601C120.104 76.5448 120.706 77.3019 120.706 78.3568C120.706 80.0072 119.401 80.8015 117.759 80.8015C116.116 80.8015 114.824 79.9079 114.824 78.3568H115.438C115.438 79.6101 116.517 80.2059 117.759 80.2059C119 80.2059 120.104 79.6597 120.104 78.3568C120.104 77.0412 118.912 76.5199 117.759 76.5199C115.965 76.5199 114.849 75.1921 114.849 73.5539C114.849 71.6428 116.153 70.5632 117.759 70.5632C118.386 70.5632 119.038 70.7865 119.514 71.1216ZM117.759 71.1712C116.492 71.1712 115.463 71.953 115.463 73.5539C115.463 74.8199 116.341 75.9119 117.759 75.9119C119.038 75.9119 120.079 74.8199 120.079 73.5539C120.079 72.0027 119.038 71.1712 117.759 71.1712Z" fill="#FF8000"/>
<path d="M129.334 71.3945L128.957 71.7917C128.33 71.2457 127.716 71.1463 127.026 71.1463C126.06 71.1341 125.132 71.4939 125.157 72.2757C125.183 73.0948 126.261 73.2561 127.039 73.3926C128.142 73.5788 129.66 73.765 129.597 75.1921C129.559 76.5448 128.142 76.9048 127.051 76.9048C125.96 76.9048 124.882 76.4952 124.342 75.6761L124.794 75.279C125.308 76.0112 126.236 76.3214 127.064 76.3214C127.816 76.3214 128.957 76.1228 128.995 75.1548C129.02 74.2737 127.992 74.1001 126.976 73.9387C125.772 73.7401 124.58 73.5168 124.568 72.2881C124.556 71.0843 125.772 70.5632 127.026 70.5756C127.929 70.5756 128.719 70.8237 129.334 71.3945Z" fill="#FF8000"/>
<path d="M145.279 70.6748H145.893C145.893 72.7225 145.893 74.7577 145.893 76.8054H145.279V75.5023C144.677 76.4579 143.749 76.9048 142.746 76.9048C141.015 76.9048 139.598 75.6141 139.598 73.7401C139.598 71.8661 141.015 70.6003 142.746 70.6003C143.749 70.6003 144.765 71.0596 145.279 72.0152V70.6748ZM142.746 71.1836C141.341 71.1836 140.212 72.2012 140.212 73.7401C140.212 75.279 141.341 76.309 142.746 76.309C146.195 76.309 146.195 71.1836 142.746 71.1836Z" fill="#FF8000"/>
<path d="M150.326 70.6748H150.902L150.928 71.767C151.316 70.9354 152.194 70.6128 152.984 70.6128C153.448 70.6003 153.9 70.7245 154.314 70.9727L154.038 71.469C153.712 71.2705 153.348 71.1836 152.984 71.1836C151.831 71.1961 150.94 72.1143 150.94 73.2312V76.8054H150.326V70.6748Z" fill="#FF8000"/>
<path d="M159.203 68.8878L159.805 68.8257V70.6748H161.912V71.1836H159.805V74.919C159.805 75.7505 159.98 76.3339 160.946 76.3339C161.247 76.3339 161.586 76.2345 161.899 76.0857L162.113 76.5821C161.724 76.7681 161.335 76.8923 160.946 76.8923C159.629 76.8923 159.203 76.1228 159.203 74.919V71.1836H157.886V70.6748H159.203V68.8878Z" fill="#FF8000"/>
<path d="M172.91 70.6501V76.8054H172.295V70.6501H172.91ZM172.12 68.6767C172.12 69.3221 173.111 69.3221 173.111 68.6767C173.111 68.0314 172.12 68.0314 172.12 68.6767Z" fill="#FF8000"/>
<path d="M177.431 70.6747H178.033V71.7669C178.509 70.923 179.374 70.5756 180.24 70.5632C181.895 70.5632 183.037 71.5683 183.037 73.2685V76.8054H182.422V73.281C182.422 71.891 181.557 71.1463 180.215 71.1587C178.935 71.1712 178.045 72.1267 178.045 73.3925V76.8054H177.431V70.6747Z" fill="#FF8000"/>
<path d="M187.949 68.8878L188.552 68.8257V70.6748H190.659V71.1836H188.552V74.919C188.552 75.7505 188.726 76.3339 189.692 76.3339C189.992 76.3339 190.332 76.2345 190.645 76.0857L190.859 76.5821C190.469 76.7681 190.081 76.8923 189.692 76.8923C188.375 76.8923 187.949 76.1228 187.949 74.919V71.1836H186.632V70.6748H187.949V68.8878Z" fill="#FF8000"/>
<path d="M197.689 76.8923C195.946 76.8923 194.54 75.701 194.54 73.7525C194.54 71.8041 195.946 70.5632 197.689 70.5632C199.432 70.5632 200.837 71.8041 200.837 73.7525C200.837 75.701 199.432 76.8923 197.689 76.8923ZM197.689 76.2965C199.092 76.2965 200.235 75.341 200.235 73.7525C200.235 72.1641 199.092 71.1341 197.689 71.1341C196.283 71.1341 195.143 72.1641 195.143 73.7525C195.143 75.341 196.283 76.2965 197.689 76.2965Z" fill="#FF8000"/>
<path d="M212.038 68.8878L212.64 68.8257V70.6748H214.747V71.1836H212.64V74.919C212.64 75.7505 212.816 76.3339 213.78 76.3339C214.083 76.3339 214.42 76.2345 214.734 76.0857L214.947 76.5821C214.559 76.7681 214.171 76.8923 213.78 76.8923C212.463 76.8923 212.038 76.1228 212.038 74.919V71.1836H210.72V70.6748H212.038V68.8878Z" fill="#FF8000"/>
<path d="M221.715 76.8923C219.972 76.8923 218.567 75.6885 218.567 73.7401C218.567 71.9034 219.972 70.5756 221.715 70.5756C223.458 70.5756 225.013 71.6303 224.775 74.0256H219.193C219.319 75.4652 220.435 76.2966 221.715 76.2966C222.529 76.2966 223.482 75.9739 223.947 75.3659L224.385 75.7134C223.784 76.4952 222.705 76.8923 221.715 76.8923ZM219.193 73.4919H224.223C224.21 71.9779 223.206 71.1341 221.715 71.1341C220.435 71.1341 219.332 71.9903 219.193 73.4919Z" fill="#FF8000"/>
<path d="M233.788 75.5396L234.203 75.9492C233.576 76.5697 232.76 76.8674 231.946 76.8674C230.201 76.8674 228.76 75.6761 228.76 73.7401C228.76 71.8041 230.152 70.6128 231.946 70.6128C232.76 70.6128 233.576 70.923 234.203 71.5312L233.801 71.9159C233.298 71.4194 232.61 71.1836 231.946 71.1836C230.54 71.1836 229.362 72.0896 229.362 73.7401C229.362 75.3908 230.54 76.2966 231.946 76.2966C232.61 76.2966 233.287 76.0361 233.788 75.5396Z" fill="#FF8000"/>
<path d="M238.214 68.1183H238.803V71.8165C239.306 70.9354 240.171 70.6003 241.036 70.5879C242.767 70.5879 243.632 71.6925 243.632 73.2934V76.8054H243.03V73.2934C243.03 72.0274 242.428 71.1712 241.036 71.1712C239.732 71.1712 238.829 72.1641 238.829 73.4423V76.8054H238.214V68.1183Z" fill="#FF8000"/>
<path d="M247.991 70.6747H248.593V71.7669C249.069 70.923 249.934 70.5756 250.799 70.5632C252.456 70.5632 253.597 71.5683 253.597 73.2685V76.8054H252.983V73.281C252.983 71.891 252.116 71.1463 250.775 71.1587C249.495 71.1712 248.606 72.1267 248.606 73.3925V76.8054H247.991V70.6747Z" fill="#FF8000"/>
<path d="M260.824 76.8923C259.081 76.8923 257.675 75.701 257.675 73.7525C257.675 71.8041 259.081 70.5632 260.824 70.5632C262.567 70.5632 263.972 71.8041 263.972 73.7525C263.972 75.701 262.567 76.8923 260.824 76.8923ZM260.824 76.2965C262.227 76.2965 263.37 75.341 263.37 73.7525C263.37 72.1641 262.227 71.1341 260.824 71.1341C259.418 71.1341 258.278 72.1641 258.278 73.7525C258.278 75.341 259.418 76.2965 260.824 76.2965Z" fill="#FF8000"/>
<path d="M268.144 68.1183H268.76V76.8054H268.144V68.1183Z" fill="#FF8000"/>
<path d="M276.09 76.8923C274.347 76.8923 272.942 75.701 272.942 73.7525C272.942 71.8041 274.347 70.5632 276.09 70.5632C277.833 70.5632 279.238 71.8041 279.238 73.7525C279.238 75.701 277.833 76.8923 276.09 76.8923ZM276.09 76.2965C277.495 76.2965 278.636 75.341 278.636 73.7525C278.636 72.1641 277.495 71.1341 276.09 71.1341C274.685 71.1341 273.544 72.1641 273.544 73.7525C273.544 75.341 274.685 76.2965 276.09 76.2965Z" fill="#FF8000"/>
<path d="M287.788 71.1216L288.39 70.4265L288.792 70.7741L288.189 71.469C288.628 71.9407 288.955 72.5612 288.955 73.5539C288.955 74.6212 288.315 75.701 287.287 76.1601C288.379 76.5448 288.979 77.3019 288.979 78.3568C288.979 80.0072 287.675 80.8015 286.034 80.8015C284.39 80.8015 283.098 79.9079 283.098 78.3568H283.713C283.713 79.6101 284.792 80.2059 286.034 80.2059C287.274 80.2059 288.379 79.6597 288.379 78.3568C288.379 77.0412 287.188 76.5199 286.034 76.5199C284.24 76.5199 283.124 75.1921 283.124 73.5539C283.124 71.6428 284.428 70.5632 286.034 70.5632C286.66 70.5632 287.311 70.7865 287.788 71.1216ZM286.034 71.1712C284.765 71.1712 283.737 71.953 283.737 73.5539C283.737 74.8199 284.615 75.9119 286.034 75.9119C287.311 75.9119 288.353 74.8199 288.353 73.5539C288.353 72.0027 287.311 71.1712 286.034 71.1712Z" fill="#FF8000"/>
<path d="M297.73 70.6748H298.396L294.621 79.3619H293.968L295.109 76.731L292.627 70.6748H293.291L294.734 74.2986L295.462 76.0732L296.176 74.2861L297.73 70.6748Z" fill="#FF8000"/>
<path d="M88.3828 31.6182H93.901C94.8207 31.6182 95.4477 32.3214 95.2805 33.2315L90.5565 58.9618C90.3893 59.8305 89.5533 60.5338 88.6336 60.5338H83.1154C82.1957 60.5338 81.5687 59.8305 81.7359 58.9618L86.4597 33.2315C86.627 32.3214 87.4631 31.6182 88.3828 31.6182Z" fill="black"/>
<path d="M110.342 44.3178C110.133 44.0282 109.632 44.111 109.59 44.442L106.914 58.9618C106.747 59.8305 105.911 60.5338 104.991 60.5338H99.5148C98.5951 60.5338 97.9681 59.8305 98.1353 58.9618L102.859 33.2315C102.985 32.3214 103.862 31.6182 104.782 31.6182H111.763C112.265 31.6182 112.683 31.825 112.934 32.1972L121.211 46.7584C121.42 47.0481 121.88 46.9653 121.964 46.6344L124.389 33.2315C124.556 32.3214 125.434 31.6182 126.353 31.6182H131.83C132.749 31.6182 133.335 32.3214 133.209 33.2315L128.485 58.9618C128.318 59.8305 127.482 60.5338 126.562 60.5338H120.501C119.999 60.5338 119.581 60.327 119.33 59.9959L110.342 44.3178Z" fill="black"/>
<path d="M148.255 44.3178C148.046 44.0282 147.544 44.111 147.503 44.442L144.827 58.9618C144.66 59.8305 143.824 60.5338 142.904 60.5338H137.428C136.508 60.5338 135.881 59.8305 136.048 58.9618L140.772 33.2315C140.898 32.3214 141.776 31.6182 142.695 31.6182H149.677C150.178 31.6182 150.596 31.825 150.847 32.1972L159.124 46.7584C159.333 47.0481 159.793 46.9653 159.877 46.6344L162.302 33.2315C162.469 32.3214 163.347 31.6182 164.266 31.6182H169.743C170.662 31.6182 171.248 32.3214 171.122 33.2315L166.398 58.9618C166.231 59.8305 165.395 60.5338 164.475 60.5338H158.414C157.912 60.5338 157.494 60.327 157.243 59.9959L148.255 44.3178Z" fill="black"/>
<path d="M203.225 31.5354C207.488 31.5354 210.373 34.8863 209.621 39.0642L207.071 53.005C206.276 57.1829 202.221 60.5338 197.916 60.5338H181.026C176.762 60.5338 173.878 57.1829 174.63 53.005L177.18 39.0642C177.975 34.8863 182.03 31.5354 186.335 31.5354H203.225ZM198.375 52.0121L200.591 39.9743C200.674 39.4366 200.298 38.9816 199.754 38.9816H187.046C186.503 38.9816 186.001 39.4366 185.876 39.9743L183.702 52.0121C183.576 52.55 183.953 52.9636 184.496 52.9636H197.205C197.749 52.9636 198.291 52.55 198.375 52.0121Z" fill="black"/>
<path d="M214.52 60.575V60.5338C213.6 60.5338 212.974 59.8305 213.141 58.9619L217.863 33.1901C218.032 32.3214 218.867 31.5768 219.786 31.5768H240.647C244.953 31.5768 247.796 34.9689 247.043 39.147L245.831 45.7244C245.33 48.5786 243.197 51.0606 240.565 52.3431C240.355 52.4257 240.272 52.6325 240.355 52.7982L243.782 58.7136C244.242 59.4995 243.7 60.4924 242.779 60.4924C239.895 60.4924 238.098 60.575 236.927 60.5338C234.919 60.575 234.251 60.4924 233.917 59.7891L230.739 53.7082C230.614 53.4186 230.321 53.2946 230.028 53.2946H223.34C223.131 53.2946 222.964 53.4186 222.964 53.6254L221.961 58.9619C221.794 59.8305 220.957 60.575 220.038 60.575H214.52ZM225.599 39.147L224.385 45.683C224.343 45.8898 224.469 46.014 224.677 46.014H235.463C236.257 46.014 237.053 45.3933 237.178 44.6075L237.972 40.2639C238.139 39.4778 237.595 38.816 236.76 38.816H225.974C225.807 38.816 225.64 38.9816 225.599 39.147Z" fill="black"/>
<path d="M257.25 31.6182H262.767C263.689 31.6182 264.315 32.3214 264.148 33.2315L259.424 58.9618C259.257 59.8305 258.42 60.5338 257.501 60.5338H251.983C251.064 60.5338 250.435 59.8305 250.602 58.9618L255.326 33.2315C255.493 32.3214 256.33 31.6182 257.25 31.6182Z" fill="black"/>
<path d="M264.829 59.8719C264.662 59.4581 264.745 58.9619 265.038 58.548L281.968 33.1487C282.846 31.9904 283.932 31.701 285.439 31.6596C285.439 31.6596 285.439 31.6596 285.48 31.6596C285.856 31.6182 286.317 31.6596 286.777 31.6596C286.859 31.6596 286.944 31.6596 287.026 31.6596C287.193 31.6596 287.319 31.6596 287.529 31.6596C288.114 31.6596 288.782 31.6596 289.578 31.6596C289.578 31.6596 291.039 31.6182 291.584 33.1487L299.944 58.548C300.069 58.9619 299.987 59.4581 299.694 59.8719C299.402 60.2856 298.983 60.5338 298.523 60.5338H291.835C291.375 60.5338 290.998 60.2856 290.872 59.8305L290.12 57.4311H275.991L275.447 58.3L274.319 59.8305C274.026 60.2856 273.482 60.5338 272.981 60.5338H265.916C265.415 60.5338 264.996 60.2856 264.829 59.8719ZM285.563 42.9941L280.589 50.523H287.989L285.563 42.9941Z" fill="black"/>
</g>
<defs>
<linearGradient id="paint0_linear_6_3" x1="-9.24412" y1="53.6789" x2="80.2797" y2="41.4154" gradientUnits="userSpaceOnUse">
<stop stop-color="#0ABBDB"/>
<stop offset="1" stop-color="#003333"/>
</linearGradient>
<clipPath id="clip0_6_3">
<rect width="300" height="88" fill="white"/>
</clipPath>
</defs>
</svg>
