<svg width="300" height="89" viewBox="0 0 300 89" fill="none" xmlns="http://www.w3.org/2000/svg">
<g clip-path="url(#clip0_6_39)">
<path d="M37.8358 33.1497C39.4356 33.9221 41.267 34.0592 43.3165 33.6073C45.9204 33.0201 48.0707 31.6414 49.7677 29.4706C51.4647 27.2999 52.0641 25.0957 51.5662 22.858C51.2035 21.2222 50.2154 20.0462 48.6195 19.3085C47.0236 18.5707 45.1613 18.4393 43.0366 18.9221C40.3105 19.5299 38.1349 20.8585 36.5101 22.9083C34.8852 24.9579 34.3294 27.126 34.8428 29.4126C35.0069 30.2296 35.3645 30.9951 35.8852 31.6453C36.406 32.2955 37.0748 32.8113 37.8358 33.1497Z" fill="#FF8000"/>
<path d="M66.0043 68.9587H59.5743C59.4409 68.9602 59.3101 68.9947 59.1932 69.0591C59.0765 69.1233 58.9773 69.2155 58.9047 69.3274C56.6056 72.8313 53.4264 75.6684 49.6861 77.5545C49.4795 77.6647 49.2885 77.767 49.0762 77.8771C44.9178 79.8591 40.3666 80.8783 35.7608 80.8589C27.7116 80.8589 21.0075 78.2731 15.8337 73.1648C10.66 68.0566 8.04702 61.5155 8.04702 53.7211C8.04702 46.1159 10.6503 39.7757 15.7836 34.8934C17.7832 32.9982 20.0717 31.4335 22.5628 30.2585C25.7458 28.7594 29.1807 27.8686 32.6904 27.6321C32.8062 25.7317 33.5645 23.8854 34.958 22.128C35.6863 21.2135 36.5294 20.397 37.4666 19.6985C36.8452 19.6714 36.2373 19.6521 35.6159 19.6521C28.6109 19.6521 22.3101 21.3343 16.8218 24.6367C14.4764 26.0543 12.3031 27.7393 10.3454 29.6578C3.49659 36.3052 0.0249023 44.5805 0.0249023 54.2793C0.0249023 63.7231 3.49852 71.9366 10.33 78.7075C17.1614 85.4785 25.475 88.9102 35.0313 88.9102C40.0383 88.9313 44.9951 87.9112 49.5876 85.9148C50.9548 85.3189 52.285 84.6411 53.5707 83.8851C59.1488 80.6261 63.7054 75.8716 66.7261 70.1579C66.7915 70.0338 66.8238 69.895 66.8199 69.7548C66.8161 69.6147 66.7762 69.4778 66.7039 69.3577C66.6317 69.2375 66.5298 69.138 66.4079 69.0687C66.2859 68.9994 66.1484 68.9628 66.0082 68.9624L66.0043 68.9587ZM29.3827 37.8271C25.5233 39.1615 21.1812 41.4385 16.5149 44.5864C16.3995 44.6711 16.3065 44.7828 16.2443 44.9116C16.182 45.0406 16.1524 45.1829 16.1579 45.326C16.1668 45.4689 16.2142 45.6065 16.2951 45.7246C16.376 45.8425 16.4873 45.9364 16.6172 45.9961L19.6585 47.4659C19.7805 47.5224 19.9142 47.5491 20.0486 47.5433C20.1827 47.5376 20.3139 47.4997 20.4306 47.4331C24.4831 45.0113 27.1133 43.5706 28.248 43.138C29.166 42.7514 30.1473 42.5381 31.1428 42.5084C31.2934 42.4971 31.4448 42.5155 31.5885 42.5625C31.561 43.0516 31.4251 43.5285 31.191 43.9587C24.6103 57.0911 20.6737 67.3401 20.6737 71.3553C20.6625 72.0136 20.8216 72.6634 21.1353 73.2421C21.4491 73.8206 21.9069 74.3082 22.4645 74.6577C23.4835 75.3201 24.7398 75.4842 26.2024 75.6639L26.681 75.7315C32.0651 76.4287 37.0073 75.9767 40.2051 75.4707C43.0476 75.0343 46.0272 74.5052 49.1032 73.468C50.6914 72.9462 52.236 72.3005 53.7233 71.5368C53.8536 71.4679 53.9621 71.3634 54.0358 71.2355C57.0501 69.4162 59.333 67.6126 61.1431 65.5596C65.4293 60.7181 67.5945 54.8779 67.5945 48.2172C67.5945 40.1407 64.2251 33.1921 57.5769 27.5703C56.3364 26.5387 55.0304 25.5884 53.6672 24.7255C53.4846 26.5781 52.6876 28.4064 51.2762 30.2102C50.9077 30.6757 50.5178 31.0986 50.1279 31.5099C51.0415 32.0913 51.9167 32.7306 52.7486 33.4238C57.3801 37.3075 59.7268 42.5392 59.7268 49.0031C59.7405 51.5744 59.3578 54.1325 58.5921 56.5871C57.7854 59.0977 55.9135 62.5159 53.0844 64.6018C51.6523 65.6396 50.1368 66.5568 48.5533 67.3441C48.2251 67.4676 47.9165 67.5893 47.5884 67.7072C40.3786 70.3877 34.6587 70.0246 33.2037 68.6496C32.9105 68.3696 32.924 68.1571 32.9915 67.966L33.2925 67.0292C34.0643 64.6694 35.7587 59.3835 39.3945 51.5659C39.6743 50.9711 39.9619 50.3627 40.2628 49.7332C44.2884 41.3901 44.8268 39.5517 44.8268 38.8389C44.8268 38.1264 44.5471 37.1705 43.2021 36.481C42.2854 36.0155 41.0561 35.7818 39.4216 35.7818C36.6542 35.7818 33.2848 36.4733 29.3867 37.8212C29.3855 37.8233 29.3842 37.8252 29.3827 37.8271Z" fill="url(#paint0_linear_6_39)"/>
<path d="M36.8936 14.0558C38.0824 15.3433 39.2692 16.2504 40.454 16.777C41.6698 17.3119 42.6328 17.3563 43.3294 16.9218C44.2385 16.3424 44.4236 15.1354 43.8775 13.2756C43.3313 11.4158 42.2101 9.57536 40.5351 7.81214C39.3257 6.54652 38.1184 5.70322 36.9129 5.28222C35.7454 4.87086 34.8422 4.95389 34.2112 5.52747C33.4122 6.23818 33.2829 7.42203 33.7944 9.07709C34.3058 10.7322 35.342 12.3737 36.8936 14.0558Z" fill="#FF8000"/>
<path d="M57.1681 3.19226C56.8882 1.53139 56.1375 0.505903 54.9334 0.14283C53.4165 -0.322599 51.7974 0.355266 50.1088 2.09144C48.5169 3.75618 47.3454 5.89599 46.5831 8.50896C46.0158 10.417 45.873 12.0373 46.1394 13.4394C46.4114 14.8067 47.0058 15.7028 47.9225 16.1432C49.1189 16.6955 50.5199 16.3363 52.1931 14.9728C53.9491 13.5437 55.3638 11.4966 56.3904 8.77741C57.1874 6.72449 57.442 4.85119 57.1681 3.19226Z" fill="#FF8000"/>
<path d="M52.1041 17.126C51.1548 17.8444 50.8962 18.5628 51.284 19.3141C51.7762 20.2584 53.1713 20.9963 55.5702 21.5234C58.0788 22.0776 60.852 22.2149 63.9608 21.8923C66.3674 21.6471 68.2932 21.1411 69.6672 20.3665C71.1088 19.5612 71.597 18.671 71.1358 17.7131C70.5221 16.4771 68.6559 15.6216 65.6628 15.1697C62.7114 14.7534 59.7114 14.8324 56.7859 15.4033C54.6265 15.8128 53.0825 16.3805 52.1041 17.126Z" fill="#FF8000"/>
<path d="M84.934 71.9674C83.5043 71.9674 82.4006 73.0217 82.4006 74.5655C82.4006 76.1093 83.4792 77.1762 84.934 77.1762C86.3261 77.1762 87.4674 76.2976 87.4674 74.5781C87.4674 72.8336 86.3261 71.9674 84.934 71.9674ZM81.7861 68.8924H82.388V72.8336C82.8897 71.8294 83.8931 71.3776 84.9591 71.3776C86.6897 71.3776 88.0692 72.5322 88.0692 74.5781C88.0692 76.6365 86.7023 77.7787 84.9717 77.7787C83.9182 77.7787 82.9023 77.2514 82.388 76.3102V77.6782H81.7861V68.8924Z" fill="#FF8000"/>
<path d="M92.3345 71.4779H92.9115L92.9366 72.5825C93.3253 71.7415 94.2032 71.4152 94.9933 71.4152C95.4574 71.4026 95.9088 71.5282 96.3227 71.7792L96.0467 72.2811C95.7206 72.0804 95.357 71.9925 94.9933 71.9925C93.8396 72.0051 92.9492 72.9338 92.9492 74.0634V77.6782H92.3345V71.4779Z" fill="#FF8000"/>
<path d="M100.619 71.4529V77.6782H100.005V71.4529H100.619ZM99.8293 69.4572C99.8293 70.1098 100.82 70.1098 100.82 69.4572C100.82 68.8045 99.8293 68.8045 99.8293 69.4572Z" fill="#FF8000"/>
<path d="M105.14 71.4779H105.742V72.5825C106.219 71.7289 107.084 71.3776 107.949 71.3651C109.605 71.3651 110.746 72.3816 110.746 74.1011V77.6782H110.131V74.1137C110.131 72.7079 109.266 71.9548 107.924 71.9674C106.645 71.98 105.754 72.9464 105.754 74.2266V77.6782H105.14V71.4779Z" fill="#FF8000"/>
<path d="M119.49 71.9298L120.092 71.2268L120.493 71.5783L119.891 72.2811C120.33 72.7582 120.656 73.3857 120.656 74.3897C120.656 75.4692 120.017 76.5612 118.988 77.0255C120.079 77.4146 120.681 78.1803 120.681 79.2472C120.681 80.9164 119.377 81.7196 117.734 81.7196C116.091 81.7196 114.799 80.8159 114.799 79.2472H115.414C115.414 80.5148 116.492 81.1173 117.734 81.1173C118.975 81.1173 120.079 80.5649 120.079 79.2472C120.079 77.9167 118.888 77.3894 117.734 77.3894C115.941 77.3894 114.824 76.0465 114.824 74.3897C114.824 72.4569 116.129 71.365 117.734 71.365C118.361 71.365 119.013 71.5909 119.49 71.9298ZM117.734 71.98C116.467 71.98 115.439 72.7706 115.439 74.3897C115.439 75.6701 116.317 76.7745 117.734 76.7745C119.013 76.7745 120.054 75.6701 120.054 74.3897C120.054 72.821 119.013 71.98 117.734 71.98Z" fill="#FF8000"/>
<path d="M129.309 72.2059L128.933 72.6075C128.306 72.0553 127.691 71.9548 127.002 71.9548C126.036 71.9424 125.108 72.3063 125.133 73.097C125.158 73.9254 126.237 74.0886 127.014 74.2266C128.118 74.4149 129.635 74.6032 129.573 76.0466C129.535 77.4146 128.118 77.7787 127.027 77.7787C125.936 77.7787 124.857 77.3645 124.318 76.5361L124.769 76.1344C125.283 76.875 126.211 77.1887 127.039 77.1887C127.792 77.1887 128.933 76.9878 128.971 76.0088C128.996 75.1177 127.967 74.9421 126.951 74.779C125.747 74.5781 124.556 74.3522 124.544 73.1096C124.531 71.8921 125.747 71.3651 127.002 71.3776C127.905 71.3776 128.695 71.6285 129.309 72.2059Z" fill="#FF8000"/>
<path d="M145.254 71.4779H145.869C145.869 73.5489 145.869 75.6072 145.869 77.6782H145.254V76.3603C144.653 77.3267 143.724 77.7787 142.721 77.7787C140.99 77.7787 139.573 76.4733 139.573 74.5781C139.573 72.6828 140.99 71.4026 142.721 71.4026C143.724 71.4026 144.74 71.8671 145.254 72.8335V71.4779ZM142.721 71.9925C141.317 71.9925 140.188 73.0217 140.188 74.5781C140.188 76.1344 141.317 77.1761 142.721 77.1761C146.17 77.1761 146.17 71.9925 142.721 71.9925Z" fill="#FF8000"/>
<path d="M150.301 71.4779H150.878L150.903 72.5825C151.292 71.7415 152.17 71.4152 152.96 71.4152C153.424 71.4026 153.875 71.5282 154.289 71.7792L154.013 72.2811C153.687 72.0804 153.323 71.9925 152.96 71.9925C151.806 72.0051 150.916 72.9338 150.916 74.0634V77.6782H150.301V71.4779Z" fill="#FF8000"/>
<path d="M159.178 69.6707L159.78 69.6078V71.4779H161.887V71.9925H159.78V75.7703C159.78 76.6113 159.956 77.2013 160.922 77.2013C161.223 77.2013 161.561 77.1008 161.875 76.9503L162.088 77.4523C161.699 77.6405 161.31 77.7661 160.922 77.7661C159.605 77.7661 159.178 76.9878 159.178 75.7703V71.9925H157.862V71.4779H159.178V69.6707Z" fill="#FF8000"/>
<path d="M172.885 71.4529V77.6782H172.271V71.4529H172.885ZM172.095 69.4572C172.095 70.1098 173.086 70.1098 173.086 69.4572C173.086 68.8045 172.095 68.8045 172.095 69.4572Z" fill="#FF8000"/>
<path d="M177.406 71.4779H178.008V72.5825C178.485 71.7289 179.35 71.3776 180.215 71.3651C181.871 71.3651 183.012 72.3816 183.012 74.1011V77.6782H182.398V74.1137C182.398 72.7079 181.532 71.9548 180.19 71.9674C178.911 71.98 178.021 72.9464 178.021 74.2266V77.6782H177.406V71.4779Z" fill="#FF8000"/>
<path d="M187.925 69.6707L188.527 69.6078V71.4779H190.634V71.9925H188.527V75.7703C188.527 76.6113 188.702 77.2013 189.668 77.2013C189.968 77.2013 190.308 77.1008 190.621 76.9503L190.835 77.4523C190.445 77.6405 190.056 77.7661 189.668 77.7661C188.351 77.7661 187.925 76.9878 187.925 75.7703V71.9925H186.608V71.4779H187.925V69.6707Z" fill="#FF8000"/>
<path d="M197.664 77.7661C195.921 77.7661 194.516 76.5612 194.516 74.5906C194.516 72.6201 195.921 71.3651 197.664 71.3651C199.407 71.3651 200.812 72.6201 200.812 74.5906C200.812 76.5612 199.407 77.7661 197.664 77.7661ZM197.664 77.1636C199.068 77.1636 200.21 76.1971 200.21 74.5906C200.21 72.9841 199.068 71.9424 197.664 71.9424C196.259 71.9424 195.118 72.9841 195.118 74.5906C195.118 76.1971 196.259 77.1636 197.664 77.1636Z" fill="#FF8000"/>
<path d="M212.013 69.6707L212.615 69.6078V71.4779H214.722V71.9925H212.615V75.7703C212.615 76.6113 212.792 77.2013 213.756 77.2013C214.058 77.2013 214.396 77.1008 214.709 76.9503L214.923 77.4523C214.535 77.6405 214.144 77.7661 213.756 77.7661C212.439 77.7661 212.013 76.9878 212.013 75.7703V71.9925H210.696V71.4779H212.013V69.6707Z" fill="#FF8000"/>
<path d="M221.69 77.7661C219.946 77.7661 218.542 76.5486 218.542 74.5781C218.542 72.7205 219.946 71.3776 221.69 71.3776C223.433 71.3776 224.989 72.4443 224.751 74.8668H219.169C219.295 76.3228 220.411 77.1636 221.69 77.1636C222.505 77.1636 223.458 76.8372 223.921 76.2223L224.36 76.5738C223.76 77.3645 222.681 77.7661 221.69 77.7661ZM219.169 74.327H224.197C224.186 72.7958 223.182 71.9424 221.69 71.9424C220.411 71.9424 219.308 72.8084 219.169 74.327Z" fill="#FF8000"/>
<path d="M233.764 76.398L234.178 76.8122C233.55 77.4397 232.735 77.7409 231.919 77.7409C230.176 77.7409 228.735 76.536 228.735 74.578C228.735 72.62 230.128 71.4152 231.919 71.4152C232.735 71.4152 233.55 71.7289 234.178 72.344L233.777 72.7331C233.274 72.231 232.585 71.9925 231.919 71.9925C230.516 71.9925 229.336 72.9088 229.336 74.578C229.336 76.2474 230.516 77.1635 231.919 77.1635C232.585 77.1635 233.263 76.9001 233.764 76.398Z" fill="#FF8000"/>
<path d="M238.19 68.8924H238.779V72.6326C239.281 71.7415 240.146 71.4026 241.011 71.39C242.741 71.39 243.608 72.5072 243.608 74.1263V77.6782H243.006V74.1263C243.006 72.8459 242.403 71.98 241.011 71.98C239.707 71.98 238.805 72.9841 238.805 74.2769V77.6782H238.19V68.8924Z" fill="#FF8000"/>
<path d="M247.966 71.4779H248.568V72.5825C249.045 71.7289 249.91 71.3776 250.775 71.3651C252.432 71.3651 253.572 72.3816 253.572 74.1011V77.6782H252.957V74.1137C252.957 72.7079 252.092 71.9548 250.75 71.9674C249.471 71.98 248.582 72.9464 248.582 74.2266V77.6782H247.966V71.4779Z" fill="#FF8000"/>
<path d="M260.799 77.7661C259.054 77.7661 257.651 76.5612 257.651 74.5906C257.651 72.6201 259.054 71.3651 260.799 71.3651C262.542 71.3651 263.946 72.6201 263.946 74.5906C263.946 76.5612 262.542 77.7661 260.799 77.7661ZM260.799 77.1636C262.203 77.1636 263.345 76.1971 263.345 74.5906C263.345 72.9841 262.203 71.9424 260.799 71.9424C259.394 71.9424 258.253 72.9841 258.253 74.5906C258.253 76.1971 259.394 77.1636 260.799 77.1636Z" fill="#FF8000"/>
<path d="M268.12 68.8924H268.735V77.6782H268.12V68.8924Z" fill="#FF8000"/>
<path d="M276.066 77.7661C274.323 77.7661 272.917 76.5612 272.917 74.5906C272.917 72.6201 274.323 71.3651 276.066 71.3651C277.809 71.3651 279.214 72.6201 279.214 74.5906C279.214 76.5612 277.809 77.7661 276.066 77.7661ZM276.066 77.1636C277.471 77.1636 278.612 76.1971 278.612 74.5906C278.612 72.9841 277.471 71.9424 276.066 71.9424C274.66 71.9424 273.52 72.9841 273.52 74.5906C273.52 76.1971 274.66 77.1636 276.066 77.1636Z" fill="#FF8000"/>
<path d="M287.764 71.9298L288.366 71.2268L288.767 71.5783L288.165 72.2811C288.604 72.7582 288.931 73.3857 288.931 74.3897C288.931 75.4692 288.291 76.5612 287.263 77.0255C288.353 77.4146 288.955 78.1803 288.955 79.2472C288.955 80.9164 287.651 81.7196 286.008 81.7196C284.366 81.7196 283.073 80.8159 283.073 79.2472H283.689C283.689 80.5148 284.767 81.1173 286.008 81.1173C287.25 81.1173 288.353 80.5649 288.353 79.2472C288.353 77.9167 287.161 77.3894 286.008 77.3894C284.216 77.3894 283.099 76.0465 283.099 74.3897C283.099 72.4569 284.403 71.365 286.008 71.365C286.636 71.365 287.287 71.5909 287.764 71.9298ZM286.008 71.98C284.741 71.98 283.713 72.7706 283.713 74.3897C283.713 75.6701 284.591 76.7745 286.008 76.7745C287.287 76.7745 288.328 75.6701 288.328 74.3897C288.328 72.821 287.287 71.98 286.008 71.98Z" fill="#FF8000"/>
<path d="M297.705 71.4779H298.371L294.597 80.2637H293.944L295.084 77.6029L292.602 71.4779H293.266L294.709 75.1429L295.435 76.9377L296.15 75.1303L297.705 71.4779Z" fill="#FF8000"/>
<path d="M88.357 31.9775H93.8752C94.7949 31.9775 95.4219 32.6887 95.2548 33.6091L90.5309 59.6319C90.3636 60.5104 89.5276 61.2217 88.6079 61.2217H83.0897C82.17 61.2217 81.5429 60.5104 81.7101 59.6319L86.4341 33.6091C86.6013 32.6887 87.4373 31.9775 88.357 31.9775Z" fill="white"/>
<path d="M110.317 44.8215C110.108 44.5285 109.606 44.6123 109.564 44.9471L106.889 59.6319C106.721 60.5104 105.885 61.2217 104.965 61.2217H99.4891C98.5694 61.2217 97.9424 60.5104 98.1096 59.6319L102.834 33.6091C102.959 32.6887 103.837 31.9775 104.756 31.9775H111.738C112.24 31.9775 112.658 32.1866 112.908 32.5631L121.186 47.2898C121.395 47.5827 121.855 47.499 121.938 47.1644L124.363 33.6091C124.53 32.6887 125.408 31.9775 126.328 31.9775H131.804C132.724 31.9775 133.309 32.6887 133.184 33.6091L128.46 59.6319C128.293 60.5104 127.456 61.2217 126.537 61.2217H120.475C119.973 61.2217 119.555 61.0125 119.305 60.6777L110.317 44.8215Z" fill="white"/>
<path d="M148.23 44.8215C148.021 44.5285 147.519 44.6123 147.477 44.9471L144.802 59.6319C144.634 60.5104 143.798 61.2217 142.879 61.2217H137.402C136.483 61.2217 135.856 60.5104 136.023 59.6319L140.747 33.6091C140.872 32.6887 141.75 31.9775 142.67 31.9775H149.651C150.153 31.9775 150.571 32.1866 150.821 32.5631L159.099 47.2898C159.308 47.5827 159.768 47.499 159.851 47.1644L162.276 33.6091C162.443 32.6887 163.321 31.9775 164.241 31.9775H169.717C170.637 31.9775 171.222 32.6887 171.097 33.6091L166.373 59.6319C166.205 60.5104 165.369 61.2217 164.45 61.2217H158.388C157.887 61.2217 157.468 61.0125 157.218 60.6777L148.23 44.8215Z" fill="white"/>
<path d="M203.199 31.8937C207.463 31.8937 210.347 35.2827 209.595 39.5081L207.045 53.6073C206.251 57.8327 202.195 61.2217 197.889 61.2217H181.001C176.737 61.2217 173.852 57.8327 174.605 53.6073L177.155 39.5081C177.949 35.2827 182.004 31.8937 186.31 31.8937H203.199ZM198.349 52.6031L200.565 40.4285C200.649 39.8848 200.272 39.4246 199.73 39.4246H187.021C186.477 39.4246 185.975 39.8848 185.85 40.4285L183.676 52.6031C183.551 53.1471 183.927 53.5654 184.471 53.5654H197.178C197.722 53.5654 198.266 53.1471 198.349 52.6031Z" fill="white"/>
<path d="M214.493 61.2634V61.2217C213.574 61.2217 212.948 60.5104 213.114 59.6319L217.839 33.5673C218.006 32.6887 218.842 31.9356 219.762 31.9356H240.621C244.927 31.9356 247.771 35.3662 247.019 39.5919L245.805 46.244C245.304 49.1306 243.173 51.6408 240.538 52.9379C240.328 53.0215 240.246 53.2306 240.328 53.3981L243.758 59.3808C244.218 60.1756 243.674 61.1798 242.754 61.1798C239.869 61.1798 238.071 61.2634 236.901 61.2217C234.895 61.2634 234.225 61.1798 233.891 60.4686L230.715 54.3185C230.589 54.0256 230.296 53.9002 230.004 53.9002H223.315C223.105 53.9002 222.938 54.0256 222.938 54.2348L221.934 59.6319C221.767 60.5104 220.933 61.2634 220.011 61.2634H214.493ZM225.572 39.5919L224.36 46.2021C224.317 46.4113 224.443 46.5369 224.653 46.5369H235.437C236.233 46.5369 237.026 45.9092 237.152 45.1144L237.946 40.7214C238.113 39.9265 237.57 39.2571 236.734 39.2571H225.948C225.781 39.2571 225.614 39.4246 225.572 39.5919Z" fill="white"/>
<path d="M257.225 31.9775H262.743C263.662 31.9775 264.289 32.6887 264.122 33.6091L259.398 59.6319C259.231 60.5104 258.394 61.2217 257.475 61.2217H251.957C251.038 61.2217 250.411 60.5104 250.578 59.6319L255.302 33.6091C255.469 32.6887 256.304 31.9775 257.225 31.9775Z" fill="white"/>
<path d="M264.803 60.5523C264.636 60.1338 264.719 59.6319 265.011 59.2133L281.944 33.5254C282.82 32.3539 283.908 32.0612 285.413 32.0193C285.413 32.0193 285.413 32.0193 285.454 32.0193C285.831 31.9775 286.291 32.0193 286.75 32.0193C286.835 32.0193 286.917 32.0193 287.002 32.0193C287.169 32.0193 287.295 32.0193 287.503 32.0193C288.088 32.0193 288.756 32.0193 289.552 32.0193C289.552 32.0193 291.015 31.9775 291.557 33.5254L299.919 59.2133C300.045 59.6319 299.961 60.1338 299.668 60.5523C299.375 60.9706 298.957 61.2217 298.497 61.2217H291.809C291.349 61.2217 290.972 60.9706 290.848 60.5104L290.094 58.0838H275.964L275.422 58.9625L274.293 60.5104C274 60.9706 273.456 61.2217 272.955 61.2217H265.889C265.388 61.2217 264.97 60.9706 264.803 60.5523ZM285.538 43.4827L280.563 51.0971H287.962L285.538 43.4827Z" fill="white"/>
</g>
<defs>
<linearGradient id="paint0_linear_6_39" x1="-9.26904" y1="54.2889" x2="80.2916" y2="42.1582" gradientUnits="userSpaceOnUse">
<stop stop-color="#0ABBDB"/>
<stop offset="1" stop-color="#003333"/>
</linearGradient>
<clipPath id="clip0_6_39">
<rect width="300" height="89" fill="white"/>
</clipPath>
</defs>
</svg>
