<svg width="301" height="375" viewBox="0 0 301 375" fill="none" xmlns="http://www.w3.org/2000/svg">
<path d="M160.457 140.9C167.201 144.248 174.922 144.843 183.563 142.884C194.541 140.34 203.607 134.363 210.761 124.955C217.916 115.546 220.443 105.993 218.344 96.2946C216.814 89.2049 212.649 84.1074 205.92 80.91C199.192 77.7125 191.341 77.1432 182.383 79.2359C170.89 81.8697 161.718 87.6286 154.867 96.5122C148.017 105.396 145.673 114.793 147.837 124.704C148.53 128.244 150.037 131.563 152.233 134.381C154.428 137.199 157.248 139.434 160.457 140.9Z" fill="#FF8000"/>
<path d="M278.351 291.168H251.23C250.667 291.176 250.115 291.319 249.623 291.592C249.13 291.862 248.712 292.248 248.405 292.719C238.708 307.439 225.299 319.362 209.522 327.287C208.651 327.747 207.846 328.179 206.95 328.642C189.411 336.969 170.215 341.252 150.787 341.17C116.837 341.17 88.5599 330.304 66.7376 308.842C44.9155 287.381 33.8946 259.896 33.8946 227.146C33.8946 195.192 44.8749 168.552 66.526 148.039C74.9603 140.076 84.6125 133.502 95.1205 128.564C108.546 122.266 123.033 118.523 137.837 117.529C138.326 109.544 141.524 101.787 147.401 94.4027C150.473 90.5606 154.03 87.1298 157.983 84.1948C155.362 84.0813 152.798 84 150.177 84C120.63 84 94.0542 91.0677 70.9051 104.943C61.0126 110.9 51.846 117.98 43.5888 126.041C14.7013 153.97 0.0582065 188.741 0.0582065 229.491C0.0582065 269.169 14.7095 303.681 43.5237 332.131C72.3378 360.578 107.403 374.999 147.71 374.999C168.829 375.086 189.737 370.801 209.107 362.412C214.874 359.908 220.484 357.06 225.907 353.884C249.435 340.191 268.655 320.214 281.394 296.208C281.67 295.687 281.808 295.104 281.79 294.514C281.774 293.924 281.607 293.349 281.301 292.847C280.996 292.341 280.566 291.923 280.053 291.632C279.538 291.34 278.959 291.187 278.367 291.184L278.351 291.168ZM123.886 160.365C107.607 165.972 89.2925 175.539 69.611 188.765C69.124 189.121 68.7319 189.59 68.4696 190.132C68.207 190.674 68.0819 191.272 68.1053 191.873C68.1427 192.473 68.3426 193.051 68.6838 193.547C69.025 194.043 69.4944 194.437 70.0425 194.689L82.8705 200.863C83.3848 201.101 83.9488 201.213 84.5151 201.189C85.0817 201.165 85.634 201.006 86.1262 200.726C103.219 190.55 114.314 184.497 119.1 182.679C122.971 181.055 127.111 180.158 131.309 180.034C131.945 179.987 132.584 180.064 133.189 180.261C133.073 182.316 132.5 184.32 131.513 186.128C103.757 241.306 87.1519 284.368 87.1519 301.238C87.1049 304.004 87.7756 306.735 89.0989 309.165C90.4225 311.598 92.3536 313.647 94.7053 315.113C99.0031 317.898 104.302 318.586 110.472 319.343L112.49 319.626C135.2 322.554 156.045 320.656 169.533 318.53C181.522 316.696 194.09 314.473 207.064 310.116C213.762 307.924 220.278 305.211 226.551 302.003C227.101 301.711 227.558 301.272 227.869 300.735C240.583 293.093 250.212 285.512 257.847 276.888C275.925 256.545 285.058 232.007 285.058 204.02C285.058 170.086 270.845 140.89 242.805 117.269C237.572 112.935 232.064 108.942 226.315 105.317C225.544 113.101 222.182 120.783 216.229 128.362C214.675 130.317 213.031 132.094 211.387 133.823C215.239 136.265 218.931 138.951 222.44 141.864C241.975 158.182 251.873 180.164 251.873 207.323C251.931 218.126 250.316 228.875 247.087 239.188C243.684 249.737 235.789 264.099 223.856 272.862C217.816 277.224 211.423 281.078 204.744 284.384C203.361 284.906 202.058 285.416 200.675 285.911C170.265 297.174 146.139 295.647 140.002 289.871C138.765 288.693 138.822 287.801 139.107 286.997L140.377 283.063C143.632 273.148 150.779 250.937 166.114 218.09C167.294 215.591 168.507 213.035 169.777 210.39C186.756 175.336 189.027 167.611 189.027 164.617C189.027 161.622 187.847 157.606 182.173 154.709C178.307 152.753 173.122 151.772 166.228 151.772C154.556 151.772 140.344 154.676 123.902 160.34C123.898 160.349 123.892 160.357 123.886 160.365Z" fill="url(#paint0_linear_4_2)"/>
<path d="M155.381 58.7783C160.383 64.1645 165.377 67.9588 170.363 70.1617C175.479 72.3995 179.532 72.5853 182.463 70.7676C186.288 68.3438 187.068 63.2945 184.769 55.5143C182.471 47.7341 177.753 40.0348 170.704 32.6587C165.615 27.3642 160.534 23.8362 155.462 22.075C150.549 20.3542 146.748 20.7016 144.093 23.101C140.731 26.0742 140.187 31.0268 142.339 37.9504C144.491 44.8741 148.852 51.7413 155.381 58.7783Z" fill="#FF8000"/>
<path d="M239.634 13.4377C238.516 6.44634 235.517 2.12958 230.706 0.601237C224.647 -1.35797 218.179 1.49548 211.433 8.80389C205.073 15.8115 200.394 24.819 197.349 35.8181C195.082 43.85 194.512 50.6707 195.576 56.5728C196.662 62.3283 199.037 66.1004 202.699 67.9541C207.479 70.279 213.075 68.7669 219.759 63.0276C226.775 57.0117 232.425 48.3946 236.527 36.9481C239.711 28.3066 240.728 20.4209 239.634 13.4377Z" fill="#FF8000"/>
<path d="M220.191 72.3013C216.242 75.3128 215.166 78.3244 216.779 81.4733C218.827 85.4321 224.63 88.5244 234.609 90.7345C245.044 93.0579 256.58 93.6325 269.512 92.2807C279.523 91.2526 287.534 89.1316 293.25 85.8852C299.247 82.5095 301.279 78.7776 299.359 74.7622C296.806 69.5813 289.044 65.9951 276.593 64.1009C264.315 62.3561 251.835 62.6873 239.666 65.0803C230.683 66.7966 224.261 69.1765 220.191 72.3013Z" fill="#FF8000"/>
<defs>
<linearGradient id="paint0_linear_4_2" x1="-39.1423" y1="229.531" x2="338.56" y2="178.176" gradientUnits="userSpaceOnUse">
<stop stop-color="#0ABBDB"/>
<stop offset="1" stop-color="#003333"/>
</linearGradient>
</defs>
</svg>
