<svg width="101" height="125" viewBox="0 0 101 125" fill="none" xmlns="http://www.w3.org/2000/svg">
<path d="M53.5243 46.9667C55.7726 48.0828 58.3462 48.2809 61.2264 47.6281C64.8858 46.7799 67.9078 44.7877 70.2926 41.6516C72.6773 38.5155 73.5198 35.331 72.8201 32.0982C72.3103 29.735 70.9217 28.0358 68.6789 26.97C66.4361 25.9042 63.819 25.7144 60.8331 26.412C57.002 27.2899 53.9447 29.2095 51.6611 32.1707C49.3777 35.1321 48.5966 38.2644 49.318 41.5679C49.5488 42.7481 50.0512 43.8542 50.783 44.7935C51.5149 45.7329 52.4549 46.4781 53.5243 46.9667Z" fill="#FF8000"/>
<path d="M92.8226 97.0561H83.782C83.5946 97.0588 83.4106 97.1064 83.2464 97.1973C83.0821 97.2873 82.9428 97.4161 82.8406 97.5732C79.6083 102.48 75.1385 106.454 69.8796 109.096C69.5893 109.249 69.3207 109.393 69.0222 109.547C63.1757 112.323 56.777 113.751 50.3012 113.723C38.9845 113.723 29.5588 110.101 22.2847 102.947C15.0106 95.7935 11.337 86.6319 11.337 75.7153C11.337 65.0638 14.9971 56.1841 22.2141 49.3462C25.0256 46.6918 28.243 44.5006 31.7457 42.8548C36.2207 40.7553 41.0498 39.5076 45.9845 39.1762C46.1473 36.5148 47.2135 33.9289 49.1725 31.4676C50.1966 30.1869 51.3821 29.0433 52.6997 28.0649C51.826 28.0271 50.9714 28 50.0977 28C40.2488 28 31.3902 30.3559 23.6738 34.9811C20.3763 36.9667 17.3208 39.3266 14.5684 42.0135C4.93924 51.3235 0.0582065 62.9135 0.0582065 76.497C0.0582065 89.7231 4.94196 101.227 14.5467 110.71C24.1514 120.193 35.8399 125 49.2756 125C56.3153 125.029 63.2843 123.6 69.7413 120.804C71.6635 119.969 73.5335 119.02 75.3413 117.961C83.1839 113.397 89.5904 106.738 93.8368 98.7361C93.9289 98.5623 93.9749 98.3681 93.9687 98.1714C93.9634 97.9746 93.9076 97.7832 93.8059 97.6155C93.7041 97.447 93.5607 97.3076 93.3899 97.2105C93.2182 97.1135 93.0253 97.0623 92.8279 97.0614L92.8226 97.0561ZM41.3341 53.4549C35.9077 55.3239 29.803 58.5129 23.2425 62.9216C23.0802 63.0402 22.9494 63.1966 22.862 63.3773C22.7745 63.5579 22.7328 63.7572 22.7406 63.9576C22.753 64.1576 22.8197 64.3505 22.9334 64.5157C23.0471 64.681 23.2036 64.8125 23.3863 64.8962L27.6623 66.9545C27.8337 67.0338 28.0217 67.0711 28.2105 67.063C28.3994 67.0551 28.5835 67.0021 28.7476 66.9085C34.4452 63.5168 38.1434 61.499 39.7387 60.8931C41.0293 60.3517 42.4091 60.0528 43.8085 60.0113C44.0204 59.9956 44.2333 60.0212 44.4353 60.087C44.3964 60.7721 44.2055 61.44 43.8764 62.0426C34.6244 80.4352 29.0894 94.7894 29.0894 100.413C29.0738 101.335 29.2973 102.245 29.7385 103.055C30.1796 103.866 30.8233 104.549 31.6072 105.038C33.0399 105.966 34.8061 106.195 36.8627 106.448L37.5356 106.542C45.1054 107.518 52.0539 106.885 56.5497 106.177C60.5462 105.565 64.7354 104.824 69.0602 103.372C71.2929 102.641 73.4647 101.737 75.5557 100.668C75.739 100.57 75.8915 100.424 75.9952 100.245C80.2331 97.6976 83.4429 95.1706 85.9879 92.2959C92.0136 85.5149 95.0582 77.3356 95.0582 68.0067C95.0582 56.6952 90.3206 46.9633 80.9738 39.0897C79.2296 37.6449 77.3935 36.3141 75.477 35.1055C75.2201 37.7004 74.0996 40.2609 72.1153 42.7872C71.5971 43.439 71.049 44.0313 70.501 44.6075C71.7852 45.4217 73.0158 46.317 74.1854 47.2879C80.6972 52.7273 83.9964 60.0546 83.9964 69.1076C84.0157 72.7088 83.4775 76.2916 82.4011 79.7292C81.267 83.2455 78.6351 88.033 74.6575 90.9539C72.6441 92.408 70.5133 93.6927 68.2869 94.7947C67.8258 94.9685 67.3916 95.1388 66.9303 95.3038C56.7939 99.0581 48.7519 98.549 46.7062 96.6238C46.2938 96.2311 46.3128 95.9338 46.4078 95.6656L46.831 94.3544C47.9163 91.0492 50.2985 83.6458 55.4101 72.6968C55.8035 71.8637 56.2078 71.0117 56.6311 70.1299C62.2908 58.4452 63.0478 55.8703 63.0478 54.8722C63.0478 53.8741 62.6543 52.5353 60.7632 51.5696C59.4745 50.9178 57.7462 50.5905 55.4481 50.5905C51.5574 50.5905 46.8201 51.5588 41.3395 53.4468C41.3381 53.4497 41.3362 53.4524 41.3341 53.4549Z" fill="url(#paint0_linear_4_2)"/>
<path d="M51.8323 19.5928C53.4998 21.3882 55.1646 22.6529 56.8265 23.3873C58.532 24.1332 59.8827 24.1951 60.8599 23.5892C62.1348 22.7813 62.3947 21.0982 61.6286 18.5048C60.8625 15.9114 59.2898 13.3449 56.9403 10.8862C55.244 9.12142 53.5503 7.94541 51.8594 7.35833C50.2218 6.78472 48.9549 6.90053 48.0697 7.70035C46.9491 8.69139 46.7678 10.3423 47.4851 12.6501C48.2023 14.958 49.656 17.2471 51.8323 19.5928Z" fill="#FF8000"/>
<path d="M79.9167 4.47923C79.5441 2.14878 78.5445 0.70986 76.9409 0.200412C74.9211 -0.452656 72.7651 0.498494 70.5166 2.93463C68.3965 5.2705 66.8367 8.27299 65.8217 11.9394C65.0662 14.6167 64.876 16.8902 65.2307 18.8576C65.5929 20.7761 66.3844 22.0335 67.6051 22.6514C69.1983 23.4263 71.0639 22.9223 73.2919 21.0092C75.6304 19.0039 77.5139 16.1315 78.881 12.316C79.9423 9.43552 80.2816 6.80698 79.9167 4.47923Z" fill="#FF8000"/>
<path d="M73.4359 24.1004C72.1193 25.1043 71.7607 26.1081 72.2986 27.1578C72.981 28.4774 74.9156 29.5081 78.2417 30.2448C81.7203 31.0193 85.5655 31.2108 89.8763 30.7602C93.2132 30.4175 95.8833 29.7105 97.7888 28.6284C99.7876 27.5032 100.465 26.2592 99.8252 24.9207C98.9741 23.1938 96.387 21.9984 92.2365 21.367C88.1438 20.7854 83.984 20.8958 79.9275 21.6934C76.9332 22.2655 74.7925 23.0588 73.4359 24.1004Z" fill="#FF8000"/>
<defs>
<linearGradient id="paint0_linear_4_2" x1="-13.0086" y1="76.5105" x2="112.892" y2="59.3919" gradientUnits="userSpaceOnUse">
<stop stop-color="#0ABBDB"/>
<stop offset="1" stop-color="#003333"/>
</linearGradient>
</defs>
</svg>
